<svg width="32" height="32" viewBox="0 0 32 32" fill="none" xmlns="http://www.w3.org/2000/svg">
<g clip-path="url(#clip0_4_2)">
<path fill-rule="evenodd" clip-rule="evenodd" d="M11.9414 8.19531C11.7617 8.19531 11.6133 8.33984 11.6133 8.51953V9.91797C11.6133 10.0977 11.7617 10.2461 11.9414 10.2461H23.8047C27.1094 10.2461 29.7071 12.793 29.7071 16.0937C29.7071 16.1875 29.7813 16.2617 29.875 16.2617H31.5938C31.6875 16.2617 31.7618 16.1875 31.7618 16.0937C31.7618 11.6836 28.2227 8.19531 23.8047 8.19531H11.9414Z" fill="#6B7B84" stroke="#80949F" stroke-width="0.163363"/>
<path fill-rule="evenodd" clip-rule="evenodd" d="M2.32032 16.4062C2.32032 16.3281 2.25782 16.2617 2.17578 16.2617H0.378907C0.300782 16.2617 0.238281 16.3281 0.238281 16.4062C0.238281 20.8672 3.57422 24.5508 7.89063 24.793L21.7188 24.8047C21.8985 24.8047 22.043 24.6602 22.043 24.4805V22.9805C22.043 22.8008 21.8985 22.6562 21.7188 22.6562H8.3672C5.02735 22.6445 2.32032 19.8633 2.32032 16.4062Z" fill="#6B7B84" stroke="#80949F" stroke-width="0.163363"/>
<path fill-rule="evenodd" clip-rule="evenodd" d="M9.1875 21.0078C10.082 21.0078 10.8281 20.8359 11.5625 20.4766L11.6133 20.4297V17.8672L11.3398 18.2227C10.8086 18.8008 10.0977 19.1211 9.29297 19.1211C7.79297 19.1211 6.28906 18.1484 6.28906 16.2969C6.28906 14.8945 7.32813 13.4062 9.24219 13.4062C9.62109 13.4062 10.5508 13.4961 11.3398 14.332L11.6133 14.6719V12.125L11.5664 12.0742C10.8164 11.6992 10.0508 11.5156 9.17969 11.5156C7.6875 11.5156 6.52344 11.9102 5.59766 12.7188C5.01172 13.2227 4.03125 14.3594 4.03125 16.2695C4.03125 17.6797 4.53125 18.7852 5.60547 19.7422C6.60547 20.6172 7.71094 21.0078 9.1875 21.0078Z" fill="#6B7B84"/>
<path d="M9.18751 21.0078C10.082 21.0078 10.8281 20.8359 11.5625 20.4766L11.6133 20.4297V17.8672L11.3399 18.2227C10.8086 18.8008 10.0977 19.1211 9.29298 19.1211C7.79298 19.1211 6.28907 18.1484 6.28907 16.2969C6.28907 14.8945 7.32813 13.4062 9.2422 13.4062C9.62111 13.4062 10.5508 13.4961 11.3399 14.332L11.6133 14.6719V12.125L11.5664 12.0742C10.8164 11.6992 10.0508 11.5156 9.1797 11.5156C7.68751 11.5156 6.52345 11.9102 5.59766 12.7187C5.01172 13.2227 4.03125 14.3594 4.03125 16.2695C4.03125 17.6797 4.53126 18.7852 5.60548 19.7422C6.60548 20.6172 7.71095 21.0078 9.18751 21.0078Z" stroke="#80949F" stroke-width="0.163363"/>
<path fill-rule="evenodd" clip-rule="evenodd" d="M15.6445 13.6523H16.0898C16.5 13.6523 16.9648 13.6758 17.3164 13.9141C17.4883 14.0391 17.7773 14.3242 17.7773 14.8398C17.7773 15.2227 17.6094 15.5664 17.332 15.7812C16.9727 16.0391 16.5469 16.0234 16.207 16.0234H15.6445V13.6523ZM16.6445 17.75C17.6992 17.75 18.5273 17.4453 19.1016 16.8711C19.8047 16.1641 19.9102 15.1953 19.9102 14.6836C19.9102 14.1367 19.7813 13.0703 18.9141 12.2969C18.1992 11.6719 17.4414 11.5156 16.3711 11.5156H13.5117V21.0078H15.6836V17.75H16.6445Z" fill="#6B7B84"/>
<path d="M15.6445 13.6523V13.5703H15.5625V13.6523H15.6445ZM17.332 15.7812L17.3789 15.8477V15.8438L17.332 15.7812ZM15.6445 16.0234H15.5625V16.1055H15.6445V16.0234ZM13.5117 11.5156V11.4336H13.4297V11.5156H13.5117ZM13.5117 21.0078H13.4297V21.0898H13.5117V21.0078ZM15.6836 21.0078V21.0898H15.7656V21.0078H15.6836ZM15.6836 17.75V17.668H15.6055V17.75H15.6836ZM15.6445 13.7344H16.0898V13.5703H15.6445V13.7344ZM16.0898 13.7344C16.5 13.7344 16.9414 13.7578 17.2695 13.9844L17.3633 13.8477C16.9883 13.5898 16.4961 13.5703 16.0898 13.5703V13.7344ZM17.2695 13.9805C17.4297 14.0937 17.6953 14.3594 17.6953 14.8398H17.8594C17.8594 14.2891 17.5508 13.9805 17.3633 13.8477L17.2695 13.9805ZM17.6953 14.8398C17.6953 15.1992 17.5391 15.5156 17.2812 15.7148L17.3789 15.8438C17.6797 15.6133 17.8594 15.2461 17.8594 14.8398H17.6953ZM17.2812 15.7148C16.9492 15.957 16.5547 15.9453 16.207 15.9453V16.1055C16.5391 16.1055 16.9961 16.125 17.3789 15.8477L17.2812 15.7148ZM16.207 15.9453H15.6445V16.1055H16.207V15.9453ZM15.7266 16.0234V13.6523H15.5625V16.0234H15.7266ZM16.6445 17.8281C17.7148 17.8281 18.5664 17.5195 19.1562 16.9258L19.043 16.8125C18.4883 17.3672 17.6836 17.668 16.6445 17.668V17.8281ZM19.1562 16.9258C19.8867 16.1992 19.9922 15.2031 19.9922 14.6836H19.8281C19.8281 15.1875 19.7266 16.1289 19.043 16.8125L19.1562 16.9258ZM19.9922 14.6836C19.9922 14.1289 19.8633 13.0312 18.9688 12.2344L18.8594 12.3594C19.7031 13.1094 19.8281 14.1445 19.8281 14.6836H19.9922ZM18.9688 12.2344C18.2344 11.5937 17.4492 11.4336 16.3711 11.4336V11.5977C17.4336 11.5977 18.168 11.7539 18.8594 12.3594L18.9688 12.2344ZM16.3711 11.4336H13.5117V11.5977H16.3711V11.4336ZM13.4297 11.5156V21.0078H13.5938V11.5156H13.4297ZM13.5117 21.0898H15.6836V20.9258H13.5117V21.0898ZM15.7656 21.0078V17.75H15.6055V21.0078H15.7656ZM15.6836 17.8281H16.6445V17.668H15.6836V17.8281Z" fill="#80949F"/>
<path fill-rule="evenodd" clip-rule="evenodd" d="M26.4336 16C25.9609 15.5781 25.3008 15.3359 24.5508 15.0859C24.0195 14.8984 23.7227 14.7969 23.5273 14.6172C23.375 14.4844 23.3047 14.3438 23.3047 14.1562C23.3047 13.7422 23.5859 13.3008 24.3711 13.3008C24.9062 13.3008 25.3555 13.5273 25.7031 13.9805L25.8438 14.1602L26.9922 12.6953L26.8867 12.5898C26.1836 11.8867 25.2578 11.5156 24.2109 11.5156C22.0937 11.5156 21.1484 12.8945 21.1484 14.2578C21.1484 14.9922 21.4102 15.582 21.9219 16.0156C22.3828 16.4102 22.9414 16.6289 23.4805 16.8125L23.5391 16.832C24.0156 16.9883 24.5117 17.1523 24.8047 17.418C25.0117 17.6055 25.1016 17.8086 25.1016 18.082C25.1016 18.7031 24.6133 19.1211 23.8867 19.1211C23.3125 19.1211 22.5547 18.8359 22.1523 18.0469L22.0508 17.8398L20.6211 19.1602L20.707 19.2812C21.1602 19.9258 22.1875 21.0078 23.9531 21.0078C25.8984 21.0078 27.2578 19.7578 27.2578 17.9648C27.2578 16.9375 26.8086 16.3281 26.4336 16Z" fill="#6B7B84"/>
<path d="M26.4336 16C25.961 15.5781 25.3008 15.3359 24.5508 15.0859C24.0196 14.8984 23.7227 14.7969 23.5274 14.6172C23.375 14.4844 23.3047 14.3437 23.3047 14.1562C23.3047 13.7422 23.586 13.3008 24.3711 13.3008C24.9063 13.3008 25.3555 13.5273 25.7032 13.9805L25.8438 14.1602L26.9922 12.6953L26.8868 12.5898C26.1836 11.8867 25.2578 11.5156 24.211 11.5156C22.0938 11.5156 21.1485 12.8945 21.1485 14.2578C21.1485 14.9922 21.4102 15.582 21.9219 16.0156C22.3828 16.4102 22.9414 16.6289 23.4805 16.8125L23.5391 16.832C24.0157 16.9883 24.5117 17.1523 24.8047 17.418C25.0117 17.6055 25.1016 17.8086 25.1016 18.082C25.1016 18.7031 24.6133 19.1211 23.8867 19.1211C23.3125 19.1211 22.5547 18.8359 22.1524 18.0469L22.0508 17.8398L20.6211 19.1602L20.7071 19.2812C21.1602 19.9258 22.1875 21.0078 23.9532 21.0078C25.8985 21.0078 27.2578 19.7578 27.2578 17.9648C27.2578 16.9375 26.8086 16.3281 26.4336 16Z" stroke="#80949F" stroke-width="0.163363"/>
</g>
<defs>
<clipPath id="clip0_4_2">
<rect width="32" height="17" fill="white" transform="translate(0 8)"/>
</clipPath>
</defs>
</svg>
